<svg xmlns="http://www.w3.org/2000/svg" width="27.612" height="26.437" viewBox="0 0 27.612 26.437">
  <path id="Acceuil" d="M14.784,1.054a.575.575,0,0,0-.333.12L1.221,11.5a.576.576,0,1,0,.708.908l.8-.621V26.908a.575.575,0,0,0,.575.575h7.957a.575.575,0,0,0,.188,0H18.16a.575.575,0,0,0,.188,0H26.31a.575.575,0,0,0,.575-.575V11.785l.8.621a.576.576,0,1,0,.708-.908L24.009,8.081V3.9H20.558V5.387l-5.4-4.212A.575.575,0,0,0,14.784,1.054Zm.021,1.3,10.929,8.528V26.333h-6.9V15.4H10.779V26.333h-6.9V10.887Zm6.9,2.691h1.15V7.183l-1.15-.9Zm-9.779,11.5h5.752v9.779H11.929Z" transform="translate(-0.999 -1.054)" fill="#fff"/>
</svg>
