<svg xmlns="http://www.w3.org/2000/svg" width="30.741" height="26.437" viewBox="0 0 30.741 26.437">
  <path id="Histoire_jardin" d="M3.074,5A3.083,3.083,0,0,0,0,8.074V25.9a3.083,3.083,0,0,0,3.074,3.074h9.837a1.845,1.845,0,0,1,1.844,1.844.619.619,0,0,0,1.153.307.6.6,0,0,0,.077-.307,1.845,1.845,0,0,1,1.844-1.844h9.837A3.083,3.083,0,0,0,30.741,25.9V8.074A3.083,3.083,0,0,0,27.666,5H17.829A3.083,3.083,0,0,0,15.37,6.249,3.083,3.083,0,0,0,12.911,5Zm0,1.23h9.837a1.836,1.836,0,0,1,1.844,1.844V28.44a2.99,2.99,0,0,0-1.844-.692H3.074A1.836,1.836,0,0,1,1.23,25.9V8.074A1.836,1.836,0,0,1,3.074,6.23Zm14.755,0h9.837a1.836,1.836,0,0,1,1.844,1.844V25.9a1.836,1.836,0,0,1-1.844,1.844H17.829a2.99,2.99,0,0,0-1.844.692V8.074A1.836,1.836,0,0,1,17.829,6.23Z" transform="translate(0 -5)" fill="#fff"/>
</svg>
