<svg xmlns="http://www.w3.org/2000/svg" width="33.047" height="26.437" viewBox="0 0 33.047 26.437">
  <path id="Map" d="M9.253,5A3.885,3.885,0,0,0,5.391,8.222c-.008.044-.036.08-.041.124H5.37c-.023.1-.049.194-.062.289a3.884,3.884,0,0,0-.558.454,5.826,5.826,0,0,0-1.343,2.582c0,.005,0,.015,0,.021C2.551,14.328,1.015,20.568.661,22A6.514,6.514,0,0,0,0,24.828a6.6,6.6,0,0,0,13.2.248,5.685,5.685,0,0,0,6.651,0,6.6,6.6,0,0,0,13.2-.248A6.52,6.52,0,0,0,32.7,22.7c-.108-.434-2.06-8.189-2.912-11.009v-.021a6.372,6.372,0,0,0-1.4-2.582,3.9,3.9,0,0,0-.661-.537c-.013-.07-.023-.134-.041-.207H27.7c-.005-.044-.034-.08-.041-.124A3.885,3.885,0,0,0,23.794,5a3.957,3.957,0,0,0-3.966,3.966,4.272,4.272,0,0,0,.227,1.384c-.307.356-.565.679-.744.847a.476.476,0,0,1-.1.083,4.469,4.469,0,0,0-2.623-.929,4.294,4.294,0,0,0-2.644.929.416.416,0,0,1-.1-.083c-.194-.181-.485-.534-.826-.929a4.226,4.226,0,0,0,.207-1.3A3.957,3.957,0,0,0,9.253,5Zm0,1.322A2.588,2.588,0,0,1,11.9,8.966c0,.057-.018.108-.021.165A5.046,5.046,0,0,0,8.53,7.768a7.175,7.175,0,0,0-1.714.186A2.572,2.572,0,0,1,9.253,6.322Zm14.541,0A2.563,2.563,0,0,1,26.21,7.933a6.886,6.886,0,0,0-1.549-.165,5.244,5.244,0,0,0-3.491,1.446c-.008-.085-.021-.165-.021-.248A2.588,2.588,0,0,1,23.794,6.322ZM8.53,9.09A4.072,4.072,0,0,1,11.525,10.6a.66.66,0,0,0,.6.64,11.651,11.651,0,0,0,.826.909,1.659,1.659,0,0,0,.682.434,1.18,1.18,0,0,0,.991-.186l.021-.021a3.215,3.215,0,0,1,1.941-.7,3.248,3.248,0,0,1,1.962.723v-.021h.021a1.147,1.147,0,0,0,.971.207,1.59,1.59,0,0,0,.661-.434c.279-.263.555-.594.847-.929a.662.662,0,0,0,.454-.5,4.294,4.294,0,0,1,3.16-1.632,4.6,4.6,0,0,1,1.962.351.639.639,0,0,0,.289.165.581.581,0,0,0,.062.021,2.87,2.87,0,0,1,.475.392,5.183,5.183,0,0,1,1.074,2.045c0,.005,0,.015,0,.021.509,1.686,1.355,4.89,2.045,7.58a6.559,6.559,0,0,0-4.131-1.446,6.629,6.629,0,0,0-6.341,4.75.6.6,0,0,0-.124.145,3.721,3.721,0,0,1-3.449,1.714,3.721,3.721,0,0,1-3.449-1.714.71.71,0,0,0-.124-.165A6.607,6.607,0,0,0,2.623,19.561c.684-2.685,1.513-5.84,2.045-7.477v-.021A4.723,4.723,0,0,1,5.68,10.019,3.7,3.7,0,0,1,8.53,9.09Zm7.993,9.129a2.644,2.644,0,1,0,2.644,2.644A2.652,2.652,0,0,0,16.523,18.219ZM6.609,19.541a5.267,5.267,0,1,1-5.164,4.131.658.658,0,0,0,.248-.413s.173-.713.207-.847A5.282,5.282,0,0,1,6.609,19.541Zm9.914,0A1.322,1.322,0,1,1,15.2,20.862,1.311,1.311,0,0,1,16.523,19.541Zm9.914,0a5.276,5.276,0,0,1,4.978,3.511l.062.227a.669.669,0,0,0,.083.186,5.3,5.3,0,1,1-5.122-3.924ZM3.243,24.146a.774.774,0,0,0-.083.021.662.662,0,0,0-.516.661,3.957,3.957,0,0,0,3.966,3.966.661.661,0,1,0,0-1.322,2.588,2.588,0,0,1-2.644-2.644.662.662,0,0,0-.723-.682Zm20.489,0a.771.771,0,0,0-.083.021.662.662,0,0,0-.516.661A3.957,3.957,0,0,0,27.1,28.794a.661.661,0,1,0,0-1.322,2.588,2.588,0,0,1-2.644-2.644.662.662,0,0,0-.723-.682Z" transform="translate(0 -5)" fill="#fff"/>
</svg>
